<?xml version="1.0" encoding="utf-8"?>
<svg height="50px" width="50px" version="1.1" id="_x36_" preserveAspectRatio="none" viewBox="16.1 -245.5 300 300" xmlns="http://www.w3.org/2000/svg">
  <defs/>
  <g transform="matrix(1, 0, 0, 1, 34.440342, 76.170586)">
    <g style="" transform="matrix(0.407962, 0, 0, 0.407962, 15.746399, -155.267242)">
      <polygon style="fill:#65829A;" points="214.855,301.532 83.164,301.532 157.816,149.057 249.649,149.057 &#9;"/>
      <polygon style="fill:#55768D;" points="305.834,301.532 174.143,301.532 208.937,149.057 340.628,149.057 &#9;"/>
      <polygon style="fill:#74C6B8;" points="512,301.552 325.734,301.552 311.526,276.674 256.435,180.235 248.896,152.226 &#10;&#9;&#9;248.084,149.036 208.071,0 256.725,12.41 263.452,14.15 295.347,51.032 &#9;"/>
      <polygon style="fill:#B0DBD0;" points="208.071,0 208.071,149.036 131.697,301.552 0,301.552 4.233,295.405 &#9;"/>
      <polygon style="fill:#92CFBD;" points="208.059,0.014 388.142,301.532 214.855,301.532 208.059,149.043 &#9;"/>
      <polygon style="fill:#FFFFFF;" points="131.675,301.532 98.76,301.532 208.059,149.043 &#9;"/>
      <polygon style="fill:#FFFFFF;" points="214.855,301.532 247.775,301.532 208.059,149.043 &#9;"/>
    </g>
  </g>
</svg>