<?xml version="1.0" encoding="utf-8"?>
<svg height="24.983px" width="120px" version="1.1" id="_x36_" preserveAspectRatio="none" viewBox="16.1 -161.3 761 133" xmlns="http://www.w3.org/2000/svg">
  <defs/>
  <g transform="matrix(1, 0, 0, 1, 0, -2.27686)">
    <g>
      <g style="" transform="matrix(0.407962, 0, 0, 0.407962, 15.746399, -155.267242)">
        <polygon style="fill:#65829A;" points="214.855,301.532 83.164,301.532 157.816,149.057 249.649,149.057 &#9;"/>
        <polygon style="fill:#55768D;" points="305.834,301.532 174.143,301.532 208.937,149.057 340.628,149.057 &#9;"/>
        <polygon style="fill:#74C6B8;" points="512,301.552 325.734,301.552 311.526,276.674 256.435,180.235 248.896,152.226 &#10;&#9;&#9;248.084,149.036 208.071,0 256.725,12.41 263.452,14.15 295.347,51.032 &#9;"/>
        <polygon style="fill:#B0DBD0;" points="208.071,0 208.071,149.036 131.697,301.552 0,301.552 4.233,295.405 &#9;"/>
        <polygon style="fill:#92CFBD;" points="208.059,0.014 388.142,301.532 214.855,301.532 208.059,149.043 &#9;"/>
        <polygon style="fill:#FFFFFF;" points="131.675,301.532 98.76,301.532 208.059,149.043 &#9;"/>
        <polygon style="fill:#FFFFFF;" points="214.855,301.532 247.775,301.532 208.059,149.043 &#9;"/>
      </g>
    </g>
    <g>
      <path d="M 289.196 -135.299 L 292.911 -123.873 L 291.965 -123.873 C 282.33 -134.274 270.984 -139.474 257.926 -139.474 C 244.373 -139.474 233.421 -135.104 225.07 -126.363 C 216.716 -117.623 212.542 -107.052 212.542 -94.649 C 212.542 -86.983 214.398 -78.17 218.113 -68.209 C 221.827 -58.248 227.693 -50.057 235.707 -43.636 C 243.721 -37.215 253.424 -34.005 264.815 -34.005 C 272.289 -34.005 279.617 -35.311 286.799 -37.923 C 293.981 -40.536 299.328 -44.039 302.839 -48.434 L 303.717 -48.141 L 296.761 -36.568 C 285.504 -33.931 278.198 -32.369 274.845 -31.881 C 271.49 -31.392 266.999 -31.148 261.371 -31.148 C 240.524 -31.148 225.61 -36.385 216.627 -46.859 C 207.644 -57.332 203.153 -69.869 203.153 -84.469 C 203.153 -94.332 205.46 -103.817 210.075 -112.923 C 214.69 -122.03 221.344 -129.208 230.034 -134.457 C 238.723 -139.706 248.651 -142.33 259.817 -142.33 C 265.4 -142.33 270.229 -141.781 274.304 -140.682 C 278.378 -139.583 281.768 -138.448 284.469 -137.276 L 288.926 -135.445 C 289.061 -135.396 289.152 -135.348 289.196 -135.299 Z M 362.596 -82.491 L 333.555 -82.491 L 318.494 -41.695 C 317.458 -38.766 316.941 -36.959 316.941 -36.275 C 316.941 -34.664 318.043 -33.858 320.25 -33.858 L 320.25 -32.833 L 305.459 -32.833 L 305.459 -33.858 C 307.441 -33.858 309.107 -34.383 310.457 -35.433 C 311.808 -36.483 313.293 -39.205 314.914 -43.6 L 350.981 -142.33 L 352.67 -142.33 L 388.194 -46.969 C 388.194 -46.48 389.105 -44.173 390.929 -40.047 C 392.752 -35.921 395.533 -33.858 399.27 -33.858 L 399.27 -32.833 L 376.036 -32.833 L 376.036 -33.858 C 378.153 -33.858 379.211 -34.761 379.211 -36.568 C 379.211 -37.789 378.694 -39.742 377.657 -42.428 C 377.477 -42.623 377.319 -42.941 377.184 -43.38 C 377.094 -43.868 377.027 -44.112 376.982 -44.112 L 362.596 -82.491 Z M 334.5 -85.494 L 361.381 -85.494 L 347.941 -122.262 L 334.5 -85.494 Z M 496.322 -140.719 L 511.99 -140.719 L 511.99 -139.62 C 506.723 -139.327 504.089 -136.324 504.089 -130.611 C 504.089 -129.39 504.224 -127.706 504.495 -125.558 L 514.895 -43.819 C 515.525 -39.718 516.234 -37.093 517.023 -35.946 C 517.81 -34.799 519.443 -34.103 521.919 -33.858 L 521.919 -32.833 L 499.564 -32.833 L 499.564 -33.858 C 502.491 -33.761 503.955 -35.323 503.955 -38.546 C 503.955 -39.279 503.819 -40.719 503.549 -42.867 L 493.419 -122.115 L 457.758 -32.833 L 457.083 -32.833 L 421.22 -121.969 L 411.157 -42.281 C 410.976 -41.06 410.886 -39.669 410.886 -38.106 C 410.886 -35.274 412.395 -33.858 415.411 -33.858 L 415.411 -32.833 L 400.216 -32.833 L 400.216 -33.858 C 402.512 -33.858 403.987 -34.176 404.639 -34.811 C 405.292 -35.446 405.798 -36.434 406.159 -37.777 C 406.519 -39.12 406.79 -40.621 406.97 -42.281 L 418.315 -129.439 C 416.47 -134.273 414.624 -137.178 412.778 -138.155 C 410.931 -139.132 409.154 -139.62 407.441 -139.62 L 407.441 -140.719 L 426.218 -140.719 L 461.202 -52.462 L 496.322 -140.719 Z M 527.828 -139.62 L 527.828 -140.719 L 556.195 -140.719 C 566.28 -140.719 573.608 -139.498 578.179 -137.057 C 582.749 -134.616 586.081 -131.576 588.174 -127.938 C 590.267 -124.3 591.314 -119.503 591.314 -113.546 C 591.314 -104.415 588.41 -97.555 582.602 -92.965 C 576.793 -88.375 568.914 -86.178 558.963 -86.373 L 558.963 -87.398 C 565.267 -87.398 570.389 -89.498 574.328 -93.697 C 578.268 -97.896 580.239 -103.414 580.239 -110.25 C 580.239 -115.572 579.281 -120.296 577.368 -124.422 C 575.454 -128.548 572.765 -131.685 569.297 -133.834 C 565.83 -135.983 560.539 -137.057 553.426 -137.057 L 546.333 -137.057 L 546.333 -44.698 C 546.333 -39.473 546.874 -36.361 547.955 -35.36 C 549.036 -34.359 551.084 -33.858 554.1 -33.858 L 554.1 -32.833 L 527.828 -32.833 L 527.828 -33.858 C 532.512 -33.858 534.852 -36.177 534.852 -40.816 L 534.852 -130.172 C 534.852 -133.981 534.403 -136.507 533.501 -137.752 C 532.601 -138.997 530.71 -139.62 527.828 -139.62 Z M 647.855 -82.491 L 618.815 -82.491 L 603.753 -41.695 C 602.717 -38.766 602.199 -36.959 602.199 -36.275 C 602.199 -34.664 603.303 -33.858 605.51 -33.858 L 605.51 -32.833 L 590.719 -32.833 L 590.719 -33.858 C 592.699 -33.858 594.365 -34.383 595.716 -35.433 C 597.066 -36.483 598.552 -39.205 600.173 -43.6 L 636.239 -142.33 L 637.926 -142.33 L 673.453 -46.969 C 673.453 -46.48 674.364 -44.173 676.188 -40.047 C 678.01 -35.921 680.79 -33.858 684.529 -33.858 L 684.529 -32.833 L 661.295 -32.833 L 661.295 -33.858 C 663.411 -33.858 664.469 -34.761 664.469 -36.568 C 664.469 -37.789 663.951 -39.742 662.917 -42.428 C 662.736 -42.623 662.579 -42.941 662.443 -43.38 C 662.354 -43.868 662.286 -44.112 662.241 -44.112 L 647.855 -82.491 Z M 619.759 -85.494 L 646.64 -85.494 L 633.199 -122.262 L 619.759 -85.494 Z M 757.153 -144.454 L 752.425 -131.417 L 751.48 -131.417 C 751.66 -132.198 751.751 -133.248 751.751 -134.566 C 751.751 -135.689 751.379 -136.41 750.635 -136.727 C 749.893 -137.044 748.711 -137.203 747.09 -137.203 L 721.088 -137.203 L 721.088 -44.845 C 721.088 -41.036 721.369 -38.436 721.931 -37.044 C 722.494 -35.653 723.26 -34.774 724.228 -34.408 C 725.196 -34.041 726.76 -33.858 728.922 -33.858 L 728.922 -32.833 L 701.974 -32.833 L 701.974 -33.858 C 705.351 -34.103 707.468 -34.811 708.324 -35.982 C 709.178 -37.154 709.606 -39.596 709.606 -43.307 L 709.606 -137.203 L 684.685 -137.203 C 682.164 -137.203 680.52 -137.044 679.755 -136.727 C 678.989 -136.41 678.606 -135.616 678.606 -134.347 C 678.606 -133.712 678.786 -132.736 679.147 -131.417 L 678.201 -131.417 L 673.473 -144.454 L 674.419 -144.454 C 675.229 -142.696 676.029 -141.634 676.817 -141.268 C 677.604 -140.902 679.304 -140.719 681.916 -140.719 L 748.035 -140.719 C 750.647 -140.719 752.526 -140.902 753.675 -141.268 C 754.823 -141.634 755.667 -142.696 756.208 -144.454 L 757.153 -144.454 Z"/>
    </g>
  </g>
</svg>